<?xml version="1.0" encoding="utf-8"?>
<!-- Generator: Adobe Illustrator 16.0.3, SVG Export Plug-In . SVG Version: 6.00 Build 0)  -->
<!DOCTYPE svg PUBLIC "-//W3C//DTD SVG 1.1//EN" "http://www.w3.org/Graphics/SVG/1.1/DTD/svg11.dtd">
<svg version="1.1" xmlns="http://www.w3.org/2000/svg" xmlns:xlink="http://www.w3.org/1999/xlink" x="0px" y="0px"
	 width="452.333px" height="454.67px" viewBox="0 0 452.333 454.67" enable-background="new 0 0 452.333 454.67"
	 xml:space="preserve">
<g id="Background">
	<rect fill="#006633" width="807.667" height="454.67"/>
</g>
<g id="Shield">
</g>
<g id="S">
</g>
<g id="Smartman_Apps">
	<g>
		<path fill="#662483" stroke="#000000" stroke-width="10.5234" d="M43.315,25.407c-6.184,125.128,7.436,182.256,11.777,196.898
			c7.536,27.958,46.32,147.565,171.069,206.957c0,0,126.259-48.99,169.92-203.356c1.716-4.687,19.953-58.373,12.909-200.498
			c-50.526,49.597-132.303,49.597-182.83,0C175.629,75.009,93.85,75.009,43.315,25.407z"/>
		<text transform="matrix(1.2227 0 0 1 120.4268 301.3916)" fill="#F6CA2A" font-family="'Algerian'" font-size="323.918">S</text>
		<text transform="matrix(1.0056 0 0 1 130.0972 344.0483)" fill="#F6CA2A" font-family="'Bauhaus93'" font-size="43.7834">Smartman</text>
		<text transform="matrix(0.9342 0 0 1 183.0107 386.1318)" fill="#F6CA2A" font-family="'Bauhaus93'" font-size="48.3421">Apps</text>
	</g>
</g>
</svg>
