<?xml version="1.0" encoding="utf-8"?>
<!-- Generator: Adobe Illustrator 16.0.3, SVG Export Plug-In . SVG Version: 6.00 Build 0)  -->
<!DOCTYPE svg PUBLIC "-//W3C//DTD SVG 1.1//EN" "http://www.w3.org/Graphics/SVG/1.1/DTD/svg11.dtd">
<svg version="1.1" xmlns="http://www.w3.org/2000/svg" xmlns:xlink="http://www.w3.org/1999/xlink" x="0px" y="0px"
	 width="807.667px" height="454.67px" viewBox="0 0 807.667 454.67" enable-background="new 0 0 807.667 454.67"
	 xml:space="preserve">
<g id="Background">
	<rect fill="#006633" width="807.667" height="454.67"/>
</g>
<g id="Shield">
	<path fill="#662483" stroke="#000000" stroke-width="10.5234" d="M263.303,71.276c-4.752,96.705,5.715,140.855,9.051,152.171
		c5.792,21.607,35.599,114.045,131.476,159.946c0,0,97.035-37.862,130.592-157.163c1.318-3.623,15.334-45.114,9.922-154.955
		c-38.832,38.331-101.682,38.331-140.514,0C364.992,109.61,302.141,109.61,263.303,71.276z"/>
</g>
<g id="S">
	<text transform="matrix(1.2159 0 0 1 322.5664 284.5708)" fill="#F6CA2A" font-family="'Algerian'" font-size="250.3385">S</text>
</g>
<g id="Smartman_Apps">
	<text transform="matrix(1 0 0 1 330 317.5376)" fill="#F6CA2A" font-family="'Bauhaus93'" font-size="33.8378">Smartman</text>
	<text transform="matrix(0.929 0 0 1 370.667 350.061)" fill="#F6CA2A" font-family="'Bauhaus93'" font-size="37.361">Apps</text>
</g>
</svg>
